<?xml version="1.0" encoding="UTF-8"?>
<svg version="1.1" xmlns="http://www.w3.org/2000/svg" width="335" height="390">
<path d="M0 0 C110.55 0 221.1 0 335 0 C335 128.7 335 257.4 335 390 C224.45 390 113.9 390 0 390 C0 261.3 0 132.6 0 0 Z " fill="#000000" transform="translate(0,0)"/>
<path d="M0 0 C0.33 0 0.66 0 1 0 C1 3.63 1 7.26 1 11 C3.97 11 6.94 11 10 11 C13.01264085 17.19314145 14.35678771 23.45353296 15.6875 30.1875 C15.91244141 31.24775391 16.13738281 32.30800781 16.36914062 33.40039062 C16.58119141 34.45806641 16.79324219 35.51574219 17.01171875 36.60546875 C17.20209717 37.54543701 17.39247559 38.48540527 17.58862305 39.45385742 C18.18962839 44.6346305 18.07540896 49.79062207 18 55 C18.72566666 54.99111755 19.45133331 54.98223511 20.19898987 54.9730835 C27.15250526 54.89179591 34.1058469 54.83147076 41.0597086 54.79275131 C44.63189575 54.77217384 48.20367967 54.74442992 51.77563477 54.69824219 C92.06343956 54.19166509 128.72790098 61.67315171 158.6875 90.25 C185.98239284 118.53671308 193.41203929 155.79582005 193.20581055 193.81958008 C193.18744415 197.32315305 193.18530233 200.82646175 193.18554688 204.33007812 C193.18063357 206.59114809 193.17480607 208.85221629 193.16796875 211.11328125 C193.16685593 212.14375076 193.1657431 213.17422028 193.16459656 214.23591614 C193.10336017 223.7249467 192.53334762 233.01865526 190.25 242.25 C190.0737207 242.97179443 189.89744141 243.69358887 189.71582031 244.43725586 C181.84852619 275.80002481 165.35442254 303.33962567 137.8125 321.125 C110.79313724 337.21482219 82.65465949 339.50152318 51.88586426 339.20599365 C48.27813125 339.17475564 44.67033057 339.16148815 41.0625 339.14648438 C34.04150728 339.11475022 27.0207804 339.06386653 20 339 C19.87810303 339.61053223 19.75620605 340.22106445 19.63061523 340.85009766 C19.3784021 342.05738525 19.3784021 342.05738525 19.12109375 343.2890625 C18.95794678 344.08521973 18.7947998 344.88137695 18.62670898 345.70166016 C17.23409605 350.80881175 13.7682861 355.40199794 9.1796875 358.05078125 C5.47929151 359.66224402 1.95091735 359.66534546 -2 359 C-6.70286673 356.03893576 -8.87575499 353.06449509 -11 348 C-11.36076355 344.81082153 -11.36076355 344.81082153 -11.34057617 341.35205078 C-11.34034958 340.05115509 -11.34012299 338.7502594 -11.33988953 337.40994263 C-11.32457301 336.00506235 -11.30892508 334.60018565 -11.29296875 333.1953125 C-11.2873677 331.74657634 -11.28310001 330.29783447 -11.28010559 328.84909058 C-11.26869677 325.05139245 -11.2392644 321.25404307 -11.20599365 317.45648193 C-11.17520678 313.5752026 -11.16158192 309.69386646 -11.14648438 305.8125 C-11.1143903 298.20817501 -11.06324272 290.60413653 -11 283 C-11.66 283 -12.32 283 -13 283 C-12.985089 291.72825419 -12.94333489 300.45585735 -12.86790943 309.18379974 C-12.83371133 313.23719081 -12.80854074 317.29020787 -12.80444336 321.34375 C-12.80014481 325.26040392 -12.7715552 329.17621518 -12.72656822 333.09260559 C-12.71364253 334.58196594 -12.70926801 336.07142739 -12.71384621 337.56083679 C-12.79827442 348.15263329 -12.79827442 348.15263329 -8.45951843 357.60510254 C-5.3971025 360.53192835 -2.4069483 361.30880656 1.75 361.375 C6.88879441 361.23120457 11.00887688 360.37165834 15 357 C17.02152502 354.14232108 18.58003265 351.19492654 20 348 C21.11187785 351.56889463 20.82713661 353.67751665 19.21484375 357.125 C16.05045415 362.00894536 10.73583249 366.67634635 5 368 C-0.47761856 368.5071869 -4.15996793 367.59927648 -9 365 C-16.26468646 358.56084609 -18.08153504 353.51551921 -19 344 C-19.31027341 337.92613485 -19.23426312 331.8450684 -19.1953125 325.765625 C-19.19157392 324.03399826 -19.18873095 322.30236938 -19.18673706 320.57073975 C-19.17916705 316.05316134 -19.159577 311.53571526 -19.1373291 307.01818848 C-19.11672631 302.39235218 -19.10770474 297.76649413 -19.09765625 293.140625 C-19.07632365 284.09369244 -19.04226966 275.0468573 -19 266 C-18.18541321 266.62807053 -18.18541321 266.62807053 -17.35437012 267.26882935 C-16.63865845 267.81449554 -15.92294678 268.36016174 -15.18554688 268.92236328 C-14.47748901 269.46482697 -13.76943115 270.00729065 -13.03991699 270.56619263 C-10.61390904 272.27137382 -8.3709019 273.15727453 -5.5 273.875 C-4.6440625 274.09929687 -3.788125 274.32359375 -2.90625 274.5546875 C-2.2771875 274.70164062 -1.648125 274.84859375 -1 275 C-1 274.01 -1 273.02 -1 272 C-1.99 271.9175 -2.98 271.835 -4 271.75 C-9.67158687 270.94306691 -15.2797189 268.44508669 -19 264 C-19.34057617 262.09887695 -19.34057617 262.09887695 -19.29296875 259.98828125 C-19.28330078 259.23095703 -19.27363281 258.47363281 -19.26367188 257.69335938 C-19.23853516 256.90767578 -19.21339844 256.12199219 -19.1875 255.3125 C-19.17396484 254.51521484 -19.16042969 253.71792969 -19.14648438 252.89648438 C-19.11117089 250.93070033 -19.05736447 248.96526418 -19 247 C-18.34 247 -17.68 247 -17 247 C-16.01 248.1446875 -16.01 248.1446875 -15 249.3125 C-11.49765351 253.03704974 -6.8267651 253.84719979 -2 255 C-2 254.01 -2 253.02 -2 252 C-2.67546875 251.81824219 -3.3509375 251.63648438 -4.046875 251.44921875 C-4.93890625 251.19785156 -5.8309375 250.94648438 -6.75 250.6875 C-7.63171875 250.44386719 -8.5134375 250.20023438 -9.421875 249.94921875 C-12.22528004 248.91705598 -13.86591192 248.0968153 -16 246 C-16.49498463 243.1728344 -16.49498463 243.1728344 -16.48774719 239.6635437 C-16.49187046 239.01804569 -16.49599372 238.37254769 -16.50024194 237.70748913 C-16.50918643 235.54007796 -16.48949682 233.37387093 -16.4699707 231.20654297 C-16.4704794 229.65421909 -16.47273446 228.10189494 -16.47660828 226.54957581 C-16.48203823 222.32803747 -16.4625832 218.10693632 -16.43850732 213.88547659 C-16.41722705 209.46542301 -16.41780637 205.04537132 -16.41581726 200.62527466 C-16.40936342 193.19541906 -16.38810069 185.76572769 -16.35668945 178.3359375 C-16.31649408 168.81622174 -16.29901477 159.29661336 -16.28938007 149.77682304 C-16.28105485 141.58043741 -16.26382064 133.38407426 -16.24434257 125.18770838 C-16.24030078 123.43196506 -16.23656012 121.67622103 -16.2331202 119.92047644 C-16.22328513 114.9072562 -16.20870067 109.89409902 -16.1862812 104.8809185 C-16.18019736 103.36567313 -16.17572599 101.85042023 -16.17303848 100.33516502 C-16.1584829 92.82780556 -16.03255351 85.44819004 -15 78 C-10.52761347 79.41807378 -6.28853694 81.11304374 -2 83 C-2 82.01 -2 81.02 -2 80 C-3.8253125 79.62875 -3.8253125 79.62875 -5.6875 79.25 C-9.68119073 78.43772392 -12.23529745 77.03349307 -15 74 C-15.60658826 71.05873921 -15.47348805 68.23694744 -15.3125 65.25 C-15.28994141 64.45722656 -15.26738281 63.66445312 -15.24414062 62.84765625 C-15.18540471 60.8976238 -15.09572654 58.94856688 -15 57 C-14.26394531 57.47050781 -13.52789062 57.94101563 -12.76953125 58.42578125 C-10.30584023 59.82615851 -8.4223104 60.58491466 -5.6875 61.1875 C-4.470625 61.455625 -3.25375 61.72375 -2 62 C-2 60.68 -2 59.36 -2 58 C-3.0725 57.87625 -4.145 57.7525 -5.25 57.625 C-8.44666333 57.09222278 -10.24091652 56.50162508 -13 55 C-12.4535311 47.39667253 -11.42850789 40.02427945 -9.875 32.5625 C-9.55656128 31.02335937 -9.55656128 31.02335937 -9.23168945 29.453125 C-7.02661958 19.3102726 -3.71449527 9.67695599 0 0 Z " fill="#FBFBFB" transform="translate(131,20)"/>
<path d="M0 0 C55.3 0 55.3 0 75 19 C95.58947499 41.29689487 100.38191259 68.71769384 100.31567383 98.07373047 C100.31253523 100.96751398 100.33597971 103.8602498 100.36132812 106.75390625 C100.4588013 135.04861215 96.55024294 165.59637125 76.20825195 186.98999023 C64.20753088 198.99896915 49.56922872 204.63296733 33 207 C22.11 207 11.22 207 0 207 C0 138.69 0 70.38 0 0 Z " fill="#000000" transform="translate(177,114)"/>
<path d="M0 0 C0 0.99 0 1.98 0 3 C-1.5390625 4.4296875 -1.5390625 4.4296875 -3.625 5.875 C-17.18669906 15.3837775 -23.59436569 26.26091236 -28 42 C-28.35707031 43.16660156 -28.71414062 44.33320312 -29.08203125 45.53515625 C-30.90413859 51.58837427 -32.3472824 57.59650133 -33.5 63.8125 C-34.64257143 69.72698738 -36.14006722 74.71256414 -39 80 C-39.38542969 80.79664062 -39.77085938 81.59328125 -40.16796875 82.4140625 C-47.20908015 95.75294216 -61.11847361 103.21760346 -74.25 109.5625 C-81.42942319 113.08882985 -87.32038269 117.47689709 -92 124 C-95.68417365 135.74629393 -90.63887885 147.45813013 -85.546875 158.01171875 C-84.08083695 160.70616781 -82.55087617 163.35351681 -81 166 C-73.36433677 179.43117424 -65.6615784 192.99522919 -68 209 C-70.60051944 217.72009042 -76.08821033 223.23420256 -83.87890625 227.62109375 C-89.68296523 230.4768332 -95.33857121 232.42824548 -101.625 233.9375 C-110.46400877 236.11297475 -116.8451741 240.58864892 -124 246 C-122.436917 241.77967591 -119.47782524 239.71270369 -116 237 C-115.44054687 236.51273438 -114.88109375 236.02546875 -114.3046875 235.5234375 C-111.10185811 233.40631299 -107.62077812 232.36751962 -104 231.1875 C-91.77592982 227.00568439 -81.87540888 223.28819509 -75.125 211.8125 C-72.00969342 201.25507213 -74.53087778 192.75081211 -79 183 C-79.39574219 182.1234375 -79.79148438 181.246875 -80.19921875 180.34375 C-82.81428846 174.8529724 -85.98718978 169.82841226 -89.296875 164.734375 C-91.84985137 160.63555973 -93.96303008 156.37349424 -96 152 C-96.309375 151.3503125 -96.61875 150.700625 -96.9375 150.03125 C-100.47333966 142.27960151 -101.79577868 132.45699988 -99.09375 124.24609375 C-91.93361251 109.21439485 -78.8119995 103.18483207 -64.52514648 96.08300781 C-51.96355528 89.70850374 -44.49037788 80.81593164 -39.9609375 67.34375 C-38.44562802 62.07096578 -37.15614047 56.74497849 -35.8527832 51.41650391 C-30.09808994 27.99690644 -20.01716979 13.34477986 0 0 Z " fill="#E7E7E7" transform="translate(130,4)"/>
<path d="M0 0 C-0.13006302 5.20252068 -2.02703376 8.23591334 -5.47265625 11.9140625 C-14.18078287 19.10129529 -24.70618991 22.37982192 -35.5078125 24.9375 C-42.57464525 27.08758782 -48.18009363 31.59827771 -54 36 C-52.436917 31.77967591 -49.47782524 29.71270369 -46 27 C-45.44054688 26.51273438 -44.88109375 26.02546875 -44.3046875 25.5234375 C-41.10185811 23.40631299 -37.62077812 22.36751962 -34 21.1875 C-23.37365543 17.55226125 -13.84742548 14.28830585 -7 5 C-2.51507538 0 -2.51507538 0 0 0 Z " fill="#DEDEDE" transform="translate(60,214)"/>
<path d="M0 0 C0.66 0 1.32 0 2 0 C2.00364563 0.79878067 2.00729126 1.59756134 2.01104736 2.42054749 C2.04899811 9.9680194 2.10593033 17.51500155 2.18390274 25.06215763 C2.22332243 28.94176425 2.25553757 32.82114578 2.27099609 36.70092773 C2.2861995 40.44892658 2.32070886 44.1963064 2.36830902 47.94402885 C2.38308516 49.37001587 2.39103885 50.7960913 2.39188385 52.22215462 C2.38159283 62.80592841 2.38159283 62.80592841 7 72 C7.75 74.9375 7.75 74.9375 8 77 C4.41789438 75.84860891 2.61673853 73.72477619 0.8380127 70.46749878 C-1.10218248 64.75466262 -0.47732131 58.41483436 -0.390625 52.44140625 C-0.38315538 50.92684174 -0.37746586 49.41226749 -0.37347412 47.89768982 C-0.35827422 43.93056081 -0.31904249 39.96402686 -0.2746582 35.99713135 C-0.23358263 31.9415288 -0.21543702 27.88582917 -0.1953125 23.83007812 C-0.15254155 15.88644708 -0.08436021 7.94329777 0 0 Z " fill="#555555" transform="translate(118,303)"/>
<path d="M0 0 C0 0.99 0 1.98 0 3 C-1.5390625 4.4296875 -1.5390625 4.4296875 -3.625 5.875 C-15.94228341 14.51125619 -22.83790669 24.47500028 -27.02734375 38.78515625 C-27.82018104 41.40565863 -28.67620859 43.61954998 -30 46 C-30.495 44.515 -30.495 44.515 -31 43 C-31.66 43 -32.32 43 -33 43 C-30.61236352 27.34771639 -21.02956137 15.26537887 -8.625 6 C-5.78170347 3.94283455 -2.92000127 1.94666751 0 0 Z " fill="#D1D1D1" transform="translate(130,4)"/>
<path d="M0 0 C2.14119201 1.07059601 4.28011034 2.14620394 6.40234375 3.25390625 C7.23894531 3.68574219 8.07554688 4.11757813 8.9375 4.5625 C9.77152344 4.99691406 10.60554688 5.43132812 11.46484375 5.87890625 C13.99040526 6.99575703 16.28108713 7.56711405 19 8 C19 8.99 19 9.98 19 11 C11.62554309 10.73662654 7.2063314 8.2063314 2 3 C1.67 26.1 1.34 49.2 1 73 C0.67 73 0.34 73 0 73 C0 48.91 0 24.82 0 0 Z " fill="#1A1A1A" transform="translate(111,284)"/>
<path d="M0 0 C1.41377341 2.63904371 2.37240135 5.07120629 3 8 C2.34 8 1.68 8 1 8 C-0.0749725 9.66988503 -0.0749725 9.66988503 -1.125 11.75 C-3.92551963 16.35493608 -6.80040126 18.55817019 -12 20 C-15.43514222 20.49590023 -18.57783133 20.62880838 -22 20 C-24.625 18 -24.625 18 -26 16 C-25.01 15.67 -24.02 15.34 -23 15 C-22.34 15.33 -21.68 15.66 -21 16 C-16.46651174 16.55308557 -12.92643268 16.42758431 -8.75 14.5 C-4.32949661 10.48136055 -1.22419809 5.89721231 0 0 Z " fill="#171717" transform="translate(150,362)"/>
<path d="M0 0 C2.72613899 0.37863042 4.59550238 0.69313974 6.8125 2.375 C9.96238008 4.71491091 13.30138426 5.70548449 17 7 C17 7.99 17 8.98 17 10 C11.17047614 9.59796387 7.64652186 8.85321325 3 5 C2.67 4.01 2.34 3.02 2 2 C1.34 2 0.68 2 0 2 C0 1.34 0 0.68 0 0 Z " fill="#1A1A1A" transform="translate(112,265)"/>
<path d="M0 0 C0 0.99 0 1.98 0 3 C-1.5390625 4.4296875 -1.5390625 4.4296875 -3.625 5.875 C-4.35589844 6.39964844 -5.08679688 6.92429687 -5.83984375 7.46484375 C-6.55269531 7.97144531 -7.26554687 8.47804688 -8 9 C-12.65435725 12.45045884 -15.80313221 16.20469832 -19 21 C-19.99 20.67 -20.98 20.34 -22 20 C-18.43558225 11.16024397 -7.87652195 4.78425777 0 0 Z " fill="#D5D5D6" transform="translate(130,4)"/>
<path d="M0 0 C2.14505516 1.06509667 4.27914637 2.14570079 6.40234375 3.25390625 C7.23894531 3.68574219 8.07554688 4.11757813 8.9375 4.5625 C9.77152344 4.99691406 10.60554688 5.43132812 11.46484375 5.87890625 C13.99040526 6.99575703 16.28108713 7.56711405 19 8 C19 8.99 19 9.98 19 11 C11.62554309 10.73662654 7.2063314 8.2063314 2 3 C1.67 4.65 1.34 6.3 1 8 C0.67 8 0.34 8 0 8 C0 5.36 0 2.72 0 0 Z " fill="#2E2E2E" transform="translate(111,284)"/>
<path d="M0 0 C0.66 0 1.32 0 2 0 C2.33808686 2.06172613 2.67027361 4.1244203 3 6.1875 C3.185625 7.33605469 3.37125 8.48460937 3.5625 9.66796875 C3.93489477 12.50415393 4.08596021 15.14719564 4 18 C2.68 18 1.36 18 0 18 C0 12.06 0 6.12 0 0 Z " fill="#D4D4D4" transform="translate(135,11)"/>
<path d="M0 0 C-2.61622796 1.74415198 -4.20310562 2.45897171 -7.125 3.3125 C-14.18827806 5.59023462 -20.39724452 9.12018071 -26 14 C-24.436917 9.77967591 -21.47782524 7.71270369 -18 5 C-17.38125 4.46375 -16.7625 3.9275 -16.125 3.375 C-10.86585888 -0.02797367 -6.21265231 -1.70847939 0 0 Z " fill="#B0B0B0" transform="translate(32,236)"/>
<path d="M0 0 C1.13298785 3.60353081 0.77068285 5.6997598 -0.83203125 9.18359375 C-2.93153091 12.44870191 -5.9190879 14.69564657 -9 17 C-9 16.01 -9 15.02 -9 14 C-10.32 13.67 -11.64 13.34 -13 13 C-11.783125 12.525625 -10.56625 12.05125 -9.3125 11.5625 C-4.14543124 9.03862094 -2.26637261 5.09933837 0 0 Z " fill="#DEDEDE" transform="translate(151,368)"/>
<path d="M0 0 C0.69480469 0.16371094 1.38960938 0.32742188 2.10546875 0.49609375 C5.2352816 1.04095996 8.13798083 1.09738483 11.3125 1.0625 C12.38113281 1.05347656 13.44976562 1.04445313 14.55078125 1.03515625 C15.76314453 1.01775391 15.76314453 1.01775391 17 1 C17 1.99 17 2.98 17 4 C12.67968248 5.44010584 8.51504966 5.5616101 4 5 C1.375 3.0625 1.375 3.0625 0 1 C0 0.67 0 0.34 0 0 Z " fill="#171717" transform="translate(124,377)"/>
<path d="M0 0 C5.94 2.475 5.94 2.475 12 5 C12 5.99 12 6.98 12 8 C7.08975054 7.38621882 3.33014883 5.27516294 -1 3 C-1 5.97 -1 8.94 -1 12 C-1.33 12 -1.66 12 -2 12 C-2.05395478 10.37536158 -2.09277195 8.75021459 -2.125 7.125 C-2.14820312 6.22007813 -2.17140625 5.31515625 -2.1953125 4.3828125 C-2 2 -2 2 0 0 Z " fill="#232323" transform="translate(117,95)"/>
<path d="M0 0 C3.3 0.99 6.6 1.98 10 3 C10 4.32 10 5.64 10 7 C2.49230769 6.38461538 2.49230769 6.38461538 0 4.4375 C-0.33 3.963125 -0.66 3.48875 -1 3 C-0.67 2.01 -0.34 1.02 0 0 Z " fill="#1B1B1B" transform="translate(119,75)"/>
<path d="M0 0 C0.75 1.5625 0.75 1.5625 1 4 C-0.13084437 6.50286409 -1.52139516 8.67007722 -3 11 C-3.99 11 -4.98 11 -6 11 C-5.62671065 5.64951939 -4.0042343 3.49087093 0 0 Z " fill="#DFDFDF" transform="translate(109,23)"/>
<path d="M0 0 C0.33 0 0.66 0 1 0 C1 3.63 1 7.26 1 11 C0.01 11.33 -0.98 11.66 -2 12 C-2.66 12.99 -3.32 13.98 -4 15 C-3.43179252 9.54520815 -2.05362055 5.08940744 0 0 Z " fill="#CBCBCB" transform="translate(131,20)"/>
<path d="M0 0 C0.33 0.99 0.66 1.98 1 3 C0.34 3.66 -0.32 4.32 -1 5 C-1 5.99 -1 6.98 -1 8 C-2.75 9.125 -2.75 9.125 -5 10 C-7.25 9.125 -7.25 9.125 -9 8 C-8.071875 7.4225 -7.14375 6.845 -6.1875 6.25 C-3.40184158 4.28365288 -1.81261304 2.81962028 0 0 Z " fill="#353434" transform="translate(147,370)"/>
<path d="M0 0 C2.375 0.3125 2.375 0.3125 5 1 C7 4 7 4 7 7 C5.0625 6.1875 5.0625 6.1875 3 5 C2.67 4.01 2.34 3.02 2 2 C1.34 2 0.68 2 0 2 C0 1.34 0 0.68 0 0 Z " fill="#414141" transform="translate(112,265)"/>
<path d="M0 0 C0 0.99 0 1.98 0 3 C-1.6796875 4.5703125 -1.6796875 4.5703125 -3.875 6.125 C-4.59429687 6.64320312 -5.31359375 7.16140625 -6.0546875 7.6953125 C-8 9 -8 9 -10 10 C-9.65514457 7.1157546 -9.21744593 6.1792182 -6.93359375 4.296875 C-6.10988281 3.78640625 -5.28617187 3.2759375 -4.4375 2.75 C-3.61121094 2.22921875 -2.78492187 1.7084375 -1.93359375 1.171875 C-1.29550781 0.78515625 -0.65742188 0.3984375 0 0 Z " fill="#8E8E8E" transform="translate(130,4)"/>
<path d="M0 0 C-3.08888522 2.05925681 -3.70935927 2.2390374 -7.1875 2.125 C-9.0746875 2.063125 -9.0746875 2.063125 -11 2 C-8.74490247 -2.51019507 -4.15738698 -0.70597137 0 0 Z " fill="#C6C6C6" transform="translate(39,234)"/>
<path d="M0 0 C-0.33 3.3 -0.66 6.6 -1 10 C-2.88343932 6.23312136 -3.22057835 4.97041037 -3 1 C-1 0 -1 0 0 0 Z " fill="#F0F0F0" transform="translate(100,46)"/>
<path d="M0 0 C2.88437779 1.29299694 4.87219421 2.65941363 7 5 C6.01 5 5.02 5 4 5 C3.34 4.34 2.68 3.68 2 3 C1.67 4.65 1.34 6.3 1 8 C0.67 8 0.34 8 0 8 C0 5.36 0 2.72 0 0 Z " fill="#272727" transform="translate(111,284)"/>
<path d="M0 0 C-0.33 0.66 -0.66 1.32 -1 2 C-3.64860427 2.59355614 -6.29197322 2.74209269 -9 3 C-9 2.34 -9 1.68 -9 1 C-6.04335481 -0.4783226 -3.25770263 -0.06032783 0 0 Z " fill="#E5E5E5" transform="translate(44,231)"/>
<path d="M0 0 C0.99 0.33 1.98 0.66 3 1 C3 1.66 3 2.32 3 3 C1.68 3 0.36 3 -1 3 C-1 5.97 -1 8.94 -1 12 C-1.33 12 -1.66 12 -2 12 C-2.05395478 10.37536158 -2.09277195 8.75021459 -2.125 7.125 C-2.14820312 6.22007813 -2.17140625 5.31515625 -2.1953125 4.3828125 C-2 2 -2 2 0 0 Z " fill="#292929" transform="translate(117,95)"/>
<path d="M0 0 C1.0326802 2.78823655 1.04509293 3.8677274 0.0625 6.75 C-0.288125 7.4925 -0.63875 8.235 -1 9 C-1.99 8.34 -2.98 7.68 -4 7 C-2.68 4.69 -1.36 2.38 0 0 Z " fill="#9C9C9C" transform="translate(151,368)"/>
<path d="M0 0 C-1.11666174 3.34998521 -1.74694925 3.79340222 -4.5625 5.6875 C-5.20316406 6.12449219 -5.84382812 6.56148437 -6.50390625 7.01171875 C-6.99761719 7.33785156 -7.49132812 7.66398438 -8 8 C-6.48291727 4.46014029 -4.24676932 0 0 0 Z " fill="#898989" transform="translate(14,242)"/>
</svg>
